# xmcd
#
# Track frame offsets: 
#        150
#        19425
#        37582
#        51642
#        66075
#        88867
#        104262
#        128592
#        152142
#        173030
#        191937
#        216612
#        244012
#        263880
#        281162
#        302300
#        320200
#
# Disc length: 4535 seconds
#
# Revision: 0
# Processed by: cddbd v1.5.2PL0 Copyright (c) Steve Scherf et al.
# Submitted via: ExactAudioCopyFreeDBPlugin 1.0
#
DISCID=fe11b511
DTITLE=堀内孝雄 - OLD&NEW Disk2
DYEAR=2006
DGENRE=Blues
TTITLE0=狂った果実
TTITLE1=遠くで汽笛を聞きながら
TTITLE2=冬の稲妻
TTITLE3=帰り道
TTITLE4=過ぎゆくものは…
TTITLE5=君のひとみは10000ボルト
TTITLE6=言葉にならない贈りもの
TTITLE7=ページ99
TTITLE8=デラシネ<シングル・バージョン>
TTITLE9=L・A・NITE
TTITLE10=涙を捨てる街(ニューバージョン)
TTITLE11=あいつが死んだ晩(ニューバージョン)
TTITLE12=愛しき日々
TTITLE13=恋唄綴り
TTITLE14=影法師
TTITLE15=東京発
TTITLE16=竹とんぼ
EXTD=
EXTT0=
EXTT1=
EXTT2=
EXTT3=
EXTT4=
EXTT5=
EXTT6=
EXTT7=
EXTT8=
EXTT9=
EXTT10=
EXTT11=
EXTT12=
EXTT13=
EXTT14=
EXTT15=
EXTT16=
PLAYORDER=
